<svg width="40" height="40" viewBox="0 0 40 40" fill="none" xmlns="http://www.w3.org/2000/svg">
<path d="M40 20C40 31.0457 31.0457 40 20 40C8.9543 40 0 31.0457 0 20C0 8.9543 8.9543 0 20 0C31.0457 0 40 8.9543 40 20Z" fill="#2D2D2D"/>
<path fill-rule="evenodd" clip-rule="evenodd" d="M16.8326 21.5652L20.0022 23.8356L23.0576 21.6274L29.9064 28.7061C29.7261 28.7671 29.5334 28.8 29.333 28.8H10.667C10.4206 28.8 10.1854 28.7495 9.96928 28.6592L16.8326 21.5652ZM31.2 15.7478V26.8441C31.2 27.1339 31.1395 27.4084 31.032 27.656L24.3187 20.7169L31.2 15.7478ZM8.8 15.81L15.567 20.6582L8.91872 27.5316C8.83998 27.3118 8.79976 27.0789 8.8 26.8441V15.81ZM29.333 11.2C30.3634 11.2 31.2 12.0753 31.2 13.1559V13.8435L19.9978 21.9337L8.8 13.9104V13.1559C8.8 12.0765 9.63552 11.2 10.667 11.2H29.333Z" fill="white"/>
</svg>
