<svg width="32" height="32" viewBox="0 0 32 32" fill="none" xmlns="http://www.w3.org/2000/svg">
<path d="M16 2.66666C10.84 2.66666 6.66667 6.83999 6.66667 12C6.66667 14.32 7.33334 16.4933 8.54667 18.4533C9.81334 20.5067 11.48 22.2667 12.76 24.32C13.3867 25.32 13.84 26.2533 14.32 27.3333C14.6667 28.0667 14.9467 29.3333 16 29.3333C17.0533 29.3333 17.3333 28.0667 17.6667 27.3333C18.16 26.2533 18.6 25.32 19.2267 24.32C20.5067 22.28 22.1733 20.52 23.44 18.4533C24.6667 16.4933 25.3333 14.32 25.3333 12C25.3333 6.83999 21.16 2.66666 16 2.66666ZM16 15.6667C14.16 15.6667 12.6667 14.1733 12.6667 12.3333C12.6667 10.4933 14.16 8.99999 16 8.99999C17.84 8.99999 19.3333 10.4933 19.3333 12.3333C19.3333 14.1733 17.84 15.6667 16 15.6667Z" fill="white"/>
</svg>
