<svg width="32" height="32" viewBox="0 0 32 32" fill="none" xmlns="http://www.w3.org/2000/svg">
<path fill-rule="evenodd" clip-rule="evenodd" d="M17.259 3.85289C17.3403 3.12101 17.9995 2.59362 18.7314 2.67493C21.7377 3.00891 24.5412 4.35518 26.6814 6.49272C28.8216 8.63025 30.1714 11.432 30.5092 14.4379C30.5914 15.1697 30.0648 15.8295 29.3331 15.9118C28.6013 15.994 27.9414 15.4674 27.8592 14.7357C27.589 12.3309 26.5091 10.0895 24.7969 8.37952C23.0848 6.6695 20.842 5.59247 18.437 5.32529C17.7051 5.24398 17.1777 4.58477 17.259 3.85289ZM8.89314 6.98906C8.64783 6.7781 8.33417 6.66353 8.01063 6.66671L7.99751 6.66684L3.99821 6.66677C3.81329 6.66703 3.63045 6.70574 3.46129 6.78046C3.29197 6.85525 3.14007 6.96448 3.01528 7.10119C2.89048 7.2379 2.79552 7.3991 2.73643 7.57452C2.67828 7.74717 2.65614 7.92987 2.67134 8.11135C3.08833 12.0201 4.41925 15.7759 6.55655 19.0752L6.5629 19.085C8.50504 22.1413 11.0962 24.7326 14.1526 26.6748L14.163 26.6814C17.4468 28.8109 21.1837 30.1415 25.0743 30.5664C25.2559 30.5814 25.4387 30.5591 25.6114 30.5007C25.7872 30.4412 25.9488 30.3456 26.0856 30.2201C26.2224 30.0946 26.3315 29.9419 26.4059 29.7718C26.4802 29.6016 26.5183 29.4179 26.5175 29.2322L26.5175 29.2268V25.2268C26.5175 25.2204 26.5176 25.2141 26.5176 25.2077C26.5177 25.203 26.5178 25.1984 26.5179 25.1937C26.526 24.8667 26.4137 24.5482 26.2023 24.2987C25.9919 24.0504 25.698 23.8877 25.376 23.841C23.9987 23.6588 22.6464 23.3217 21.3447 22.836L21.3417 22.8348C21.1031 22.7451 20.8438 22.7257 20.5944 22.7789C20.3461 22.8319 20.1181 22.9546 19.9372 23.1327L18.247 24.8229C17.8226 25.2473 17.1669 25.3359 16.6451 25.0392C13.0984 23.0225 10.1618 20.0859 8.14512 16.5392C7.84843 16.0174 7.93695 15.3617 8.36137 14.9373L10.0516 13.2471C10.2297 13.0662 10.3524 12.8382 10.4054 12.5898C10.4585 12.3405 10.4391 12.0812 10.3494 11.8426L10.3483 11.8396C9.86261 10.538 9.52546 9.18568 9.34325 7.80842C9.29702 7.48998 9.13719 7.19894 8.89314 6.98906ZM17.2755 9.07812C17.4165 8.35536 18.1167 7.88377 18.8395 8.02478C20.4023 8.32969 21.8385 9.09399 22.9644 10.2199C24.0903 11.3458 24.8546 12.782 25.1595 14.3448C25.3005 15.0675 24.8289 15.7678 24.1062 15.9088C23.3834 16.0498 22.6832 15.5782 22.5422 14.8554C22.3389 13.8136 21.8294 12.8561 21.0788 12.1055C20.3282 11.3549 19.3707 10.8454 18.3288 10.6421C17.6061 10.5011 17.1345 9.80087 17.2755 9.07812Z" fill="white"/>
</svg>
