<svg width="50" height="50" viewBox="0 0 50 50" fill="none" xmlns="http://www.w3.org/2000/svg">
<g clip-path="url(#clip0_144_967)">
<circle cx="25" cy="25" r="25" fill="white"/>
<path fill-rule="evenodd" clip-rule="evenodd" d="M25 36C31.0751 36 36 31.0751 36 25C36 18.9249 31.0751 14 25 14C18.9249 14 14 18.9249 14 25C14 31.0751 18.9249 36 25 36ZM25 25.5C25.0486 25.5 25.0956 25.4931 25.1401 25.4801C25.1905 25.6687 25.2389 25.8558 25.2867 26.0406C25.7077 27.6694 26.0795 29.1077 27.3918 29.6513C28.9811 30.3096 30.6455 28.3637 29.9517 26.7067C29.4291 25.4586 28.0928 25.33 26.5568 25.1822C26.2109 25.1489 25.8548 25.1147 25.4956 25.0664C25.4985 25.0447 25.5 25.0225 25.5 25C25.5 24.9692 25.4972 24.9391 25.4919 24.9099C25.8523 24.8614 26.2096 24.827 26.5567 24.7936C28.0927 24.6458 29.4291 24.5172 29.9517 23.2691C30.6455 21.6121 28.9811 19.6662 27.3918 20.3245C26.0795 20.8681 25.7077 22.3064 25.2867 23.9353C25.237 24.1273 25.1867 24.322 25.1341 24.5182C25.0914 24.5063 25.0464 24.5 25 24.5C24.9651 24.5 24.9311 24.5036 24.8982 24.5104C24.8227 24.1474 24.7624 23.7865 24.7038 23.436C24.4492 21.914 24.2278 20.59 22.9463 20.1557C21.2449 19.5791 19.4198 21.3751 20.1873 22.9146C20.8211 24.1859 22.2818 24.4565 23.9361 24.7629C24.1273 24.7983 24.3211 24.8342 24.5165 24.8722C24.5057 24.913 24.5 24.9558 24.5 25C24.5 25.0359 24.5038 25.0709 24.511 25.1047C24.3175 25.1423 24.1256 25.1778 23.9362 25.2129C22.282 25.5193 20.8211 25.79 20.1873 27.0612C19.4198 28.6007 21.2449 30.3968 22.9463 29.8202C24.2278 29.3859 24.4492 28.0618 24.7038 26.5398C24.7611 26.1968 24.8202 25.8438 24.8934 25.4886C24.9277 25.4961 24.9634 25.5 25 25.5Z" fill="white"/>
<path d="M30.0749 20.2101C28.3312 23.2302 25.1857 24.6784 25.1857 24.6784C25.1857 24.6784 24.8671 21.2302 26.6108 18.2101C29.7679 12.7418 30.5434 13.1895 31.5 13.7418C32.4566 14.294 33.232 14.7418 30.0749 20.2101Z" fill="#2D2D2D"/>
<path d="M19.6932 19.7918C22.9456 21.6695 24.6536 24.8001 24.6536 24.8001C24.6536 24.8001 21.0885 24.8862 17.8361 23.0084C11.9471 19.6084 12.3628 18.8884 12.8757 18.0001C13.3885 17.1118 13.8042 16.3918 19.6932 19.7918Z" fill="#2D2D2D"/>
<path d="M30.3068 30.2082C27.0544 28.3305 25.3464 25.1999 25.3464 25.1999C25.3464 25.1999 28.9115 25.1138 32.1639 26.9916C38.0529 30.3916 37.6372 31.1116 37.1243 31.9999C36.6115 32.8882 36.1958 33.6082 30.3068 30.2082Z" fill="#2D2D2D"/>
<path d="M19.9251 29.7899C21.6687 26.7698 24.8143 25.3216 24.8143 25.3216C24.8143 25.3216 25.1328 28.7698 23.3892 31.7899C20.232 37.2582 19.4565 36.8105 18.5 36.2582C17.5434 35.706 16.7679 35.2582 19.9251 29.7899Z" fill="#2D2D2D"/>
</g>
<defs>
<clipPath id="clip0_144_967">
<rect width="50" height="50" fill="white"/>
</clipPath>
</defs>
</svg>
