<svg width="50" height="50" viewBox="0 0 50 50" fill="none" xmlns="http://www.w3.org/2000/svg">
<g clip-path="url(#clip0_144_971)">
<circle cx="25" cy="25" r="25" fill="white"/>
<path d="M16.4328 17.2727C16.4328 16.0175 17.3015 15 18.3731 15C19.4447 15 20.3134 16.0175 20.3134 17.2727V32.7273C20.3134 33.9825 19.4447 35 18.3731 35C17.3015 35 16.4328 33.9825 16.4328 32.7273V17.2727Z" fill="#2D2D2D"/>
<path d="M21.0896 17.2727C21.0896 16.0175 21.9583 15 23.0299 15C24.1014 15 24.9701 16.0175 24.9701 17.2727V32.7273C24.9701 33.9825 24.1014 35 23.0299 35C21.9583 35 21.0896 33.9825 21.0896 32.7273V17.2727Z" fill="#2D2D2D"/>
<path d="M25.7463 17.2727C25.7463 16.0175 26.615 15 27.6866 15C28.7582 15 29.6269 16.0175 29.6269 17.2727V32.7273C29.6269 33.9825 28.7582 35 27.6866 35C26.615 35 25.7463 33.9825 25.7463 32.7273V17.2727Z" fill="#2D2D2D"/>
<path d="M30.403 17.2727C30.403 16.0175 31.2717 15 32.3433 15C33.4149 15 34.2836 16.0175 34.2836 17.2727V32.7273C34.2836 33.9825 33.4149 35 32.3433 35C31.2717 35 30.403 33.9825 30.403 32.7273V17.2727Z" fill="#2D2D2D"/>
<path d="M35.0597 18.8636C35.0597 18.236 35.4941 17.7273 36.0299 17.7273C36.5656 17.7273 37 18.236 37 18.8636V22.0455C37 22.6731 36.5656 23.1818 36.0299 23.1818C35.4941 23.1818 35.0597 22.6731 35.0597 22.0455V18.8636Z" fill="#2D2D2D"/>
<path d="M11 20.4545C11 19.9525 11.3475 19.5455 11.7761 19.5455H14.8806C15.3092 19.5455 15.6567 19.9525 15.6567 20.4545C15.6567 20.9566 15.3092 21.3636 14.8806 21.3636H11.7761C11.3475 21.3636 11 20.9566 11 20.4545Z" fill="#2D2D2D"/>
</g>
<defs>
<clipPath id="clip0_144_971">
<rect width="50" height="50" fill="white"/>
</clipPath>
</defs>
</svg>
