<svg width="50" height="50" viewBox="0 0 50 50" fill="none" xmlns="http://www.w3.org/2000/svg">
<rect width="50" height="50" fill="#C27D60"/>
<path fill-rule="evenodd" clip-rule="evenodd" d="M26.2589 12.8527C26.3402 12.1209 26.9995 11.5935 27.7313 11.6748C30.7377 12.0088 33.5411 13.355 35.6813 15.4926C37.8215 17.6301 39.1713 20.4318 39.5091 23.4377C39.5913 24.1695 39.0648 24.8294 38.333 24.9116C37.6012 24.9938 36.9413 24.4673 36.8591 23.7355C36.5889 21.3308 35.5091 19.0894 33.7969 17.3794C32.0847 15.6693 29.842 14.5923 27.4369 14.3251C26.705 14.2438 26.1776 13.5846 26.2589 12.8527ZM17.8931 15.9889C17.6478 15.7779 17.3341 15.6634 17.0106 15.6666L16.9974 15.6667L12.9982 15.6666C12.8132 15.6669 12.6304 15.7056 12.4612 15.7803C12.2919 15.8551 12.14 15.9643 12.0152 16.101C11.8904 16.2377 11.7955 16.3989 11.7364 16.5744C11.6782 16.747 11.6561 16.9297 11.6713 17.1112C12.0883 21.0199 13.4192 24.7758 15.5565 28.075L15.5628 28.0848C17.505 31.1412 20.0962 33.7325 23.1525 35.6746L23.1629 35.6812C26.4467 37.8107 30.1837 39.1413 34.0742 39.5662C34.2558 39.5813 34.4386 39.5589 34.6113 39.5005C34.7872 39.441 34.9487 39.3455 35.0855 39.2199C35.2223 39.0944 35.3314 38.9417 35.4058 38.7716C35.4802 38.6015 35.5182 38.4177 35.5175 38.232L35.5174 38.2266V34.2266C35.5174 34.2203 35.5175 34.2139 35.5176 34.2076C35.5177 34.2029 35.5177 34.1982 35.5179 34.1935C35.526 33.8666 35.4136 33.5481 35.2022 33.2985C34.9918 33.0502 34.6979 32.8875 34.376 32.8409C32.9986 32.6587 31.6463 32.3215 30.3446 31.8358L30.3416 31.8347C30.103 31.745 29.8437 31.7256 29.5944 31.7788C29.3461 31.8317 29.1181 31.9545 28.9371 32.1325L27.2469 33.8228C26.8225 34.2472 26.1668 34.3357 25.6451 34.039C22.0984 32.0223 19.1618 29.0857 17.1451 25.539C16.8484 25.0172 16.9369 24.3616 17.3613 23.9371L19.0515 22.247C19.2296 22.066 19.3524 21.838 19.4053 21.5897C19.4585 21.3404 19.4391 21.0811 19.3494 20.8424L19.3483 20.8394C18.8626 19.5378 18.5254 18.1855 18.3432 16.8083C18.297 16.4898 18.1371 16.1988 17.8931 15.9889ZM26.2755 18.078C26.4165 17.3552 27.1167 16.8836 27.8394 17.0246C29.4022 17.3295 30.8385 18.0938 31.9643 19.2197C33.0902 20.3456 33.8545 21.7819 34.1594 23.3446C34.3005 24.0674 33.8289 24.7676 33.1061 24.9086C32.3834 25.0496 31.6831 24.578 31.5421 23.8553C31.3389 22.8134 30.8293 21.8559 30.0787 21.1053C29.3281 20.3548 28.3706 19.8452 27.3288 19.6419C26.606 19.5009 26.1344 18.8007 26.2755 18.078Z" fill="white"/>
</svg>
