<svg width="100" height="40" viewBox="0 0 100 40" fill="none" xmlns="http://www.w3.org/2000/svg">
<rect width="100" height="40" fill="#C27D60"/>
<path fill-rule="evenodd" clip-rule="evenodd" d="M50.9442 10.8897C51.0052 10.3408 51.4996 9.94522 52.0485 10.0062C54.3033 10.2567 56.4059 11.2664 58.011 12.8695C59.6162 14.4727 60.6285 16.574 60.8819 18.8284C60.9435 19.3773 60.5486 19.8722 59.9998 19.9338C59.4509 19.9955 58.956 19.6006 58.8944 19.0518C58.6917 17.2482 57.8818 15.5672 56.5977 14.2846C55.3136 13.0021 53.6315 12.1944 51.8277 11.994C51.2788 11.933 50.8833 11.4386 50.9442 10.8897ZM44.6698 13.2418C44.4859 13.0836 44.2506 12.9977 44.008 13L43.9981 13.0001L40.9986 13.0001C40.86 13.0003 40.7228 13.0293 40.596 13.0853C40.469 13.1414 40.355 13.2234 40.2614 13.3259C40.1678 13.4284 40.0966 13.5493 40.0523 13.6809C40.0087 13.8104 39.9921 13.9474 40.0035 14.0835C40.3162 17.0151 41.3144 19.832 42.9174 22.3064L42.9222 22.3137C44.3788 24.606 46.3222 26.5495 48.6144 28.0061L48.6222 28.011C51.0851 29.6082 53.8878 30.6061 56.8057 30.9248C56.9419 30.9361 57.079 30.9193 57.2085 30.8755C57.3404 30.8309 57.4615 30.7592 57.5642 30.6651C57.6668 30.5709 57.7486 30.4564 57.8044 30.3288C57.8602 30.2012 57.8887 30.0634 57.8881 29.9241L57.8881 29.9201V26.9201C57.8881 26.9153 57.8881 26.9106 57.8882 26.9058C57.8883 26.9023 57.8883 26.8988 57.8884 26.8953C57.8945 26.6501 57.8103 26.4112 57.6517 26.224C57.4939 26.0378 57.2735 25.9158 57.032 25.8808C55.999 25.7441 54.9848 25.4913 54.0085 25.127L54.0063 25.1261C53.8273 25.0589 53.6328 25.0443 53.4458 25.0842C53.2596 25.1239 53.0886 25.216 52.9529 25.3495L51.6852 26.6172C51.3669 26.9355 50.8751 27.0019 50.4838 26.7794C47.8238 25.2669 45.6213 23.0644 44.1088 20.4044C43.8863 20.0131 43.9527 19.5213 44.271 19.203L45.5386 17.9353C45.6722 17.7997 45.7643 17.6286 45.804 17.4424C45.8439 17.2554 45.8293 17.0609 45.7621 16.882L45.7612 16.8797C45.3969 15.9035 45.1441 14.8893 45.0074 13.8563C44.9728 13.6175 44.8529 13.3992 44.6698 13.2418ZM50.9566 14.8086C51.0624 14.2665 51.5875 13.9128 52.1296 14.0186C53.3017 14.2473 54.3789 14.8205 55.2233 15.6649C56.0677 16.5093 56.6409 17.5865 56.8696 18.7586C56.9754 19.3007 56.6217 19.8258 56.0796 19.9316C55.5375 20.0373 55.0124 19.6836 54.9066 19.1416C54.7542 18.3602 54.372 17.6421 53.8091 17.0791C53.2461 16.5162 52.528 16.134 51.7466 15.9816C51.2046 15.8758 50.8509 15.3507 50.9566 14.8086Z" fill="white"/>
</svg>
